<svg width="22" height="22" viewBox="0 0 22 22" fill="none" xmlns="http://www.w3.org/2000/svg">
<path d="M10.7 1.95255C13.5898 1.95255 13.9022 1.95255 14.9956 2.03066C16.0109 2.10876 16.6358 2.26496 17.0263 2.42117C17.4949 2.57737 17.8854 2.81168 18.2759 3.20219C18.6664 3.5927 18.9007 3.90511 19.0569 4.45182C19.2131 4.84234 19.3693 5.38905 19.4474 6.48248C19.5255 7.57591 19.5255 7.96642 19.5255 10.7781C19.5255 13.5898 19.5255 13.9803 19.4474 15.0737C19.3693 16.0891 19.2131 16.7139 19.0569 17.1044C18.9007 17.573 18.6664 17.9635 18.2759 18.354C17.8854 18.7445 17.573 18.9788 17.0263 19.135C16.6358 19.2912 16.089 19.4474 14.9956 19.5255C13.9022 19.6036 13.5117 19.6036 10.7 19.6036C7.88831 19.6036 7.4978 19.6036 6.40437 19.5255C5.38904 19.4474 4.76421 19.2912 4.3737 19.135C3.90509 18.9788 3.5146 18.7445 3.12409 18.354C2.73358 17.9635 2.49927 17.6511 2.34307 17.1044C2.18686 16.7139 2.03066 16.1672 1.95255 15.0737C1.87445 13.9803 1.87445 13.5898 1.87445 10.7781C1.87445 7.96642 1.87445 7.57591 1.95255 6.48248C2.03066 5.46715 2.18686 4.84234 2.34307 4.45182C2.49927 3.98321 2.73358 3.5927 3.12409 3.20219C3.5146 2.81168 3.82699 2.57737 4.3737 2.42117C4.76421 2.26496 5.31093 2.10876 6.40437 2.03066C7.4978 1.95255 7.8102 1.95255 10.7 1.95255ZM10.7 0C7.8102 0 7.41971 0 6.24818 0.0781022C5.07664 0.156204 4.29561 0.312409 3.67079 0.546715C2.96787 0.859124 2.34306 1.17153 1.79634 1.79635C1.17152 2.42117 0.85911 2.96788 0.546701 3.6708C0.312394 4.37372 0.0780831 5.15474 0.0780831 6.24818C-1.90691e-05 7.41971 0 7.73212 0 10.7C0 13.5898 -1.90691e-05 13.9803 0.0780831 15.1518C0.156185 16.3234 0.312394 17.1044 0.546701 17.7292C0.85911 18.4321 1.17152 19.0569 1.79634 19.6036C2.42116 20.2285 2.96787 20.5409 3.67079 20.8533C4.37371 21.0876 5.15474 21.3219 6.24818 21.3219C7.41971 21.4 7.7321 21.4 10.7 21.4C13.5898 21.4 13.9803 21.4 15.1518 21.3219C16.3234 21.2438 17.1044 21.0876 17.7292 20.8533C18.4321 20.5409 19.0569 20.2285 19.6036 19.6036C20.2284 18.9788 20.5409 18.4321 20.8533 17.7292C21.0876 17.0263 21.3219 16.2453 21.3219 15.1518C21.4 13.9803 21.4 13.6679 21.4 10.7C21.4 7.73212 21.4 7.41971 21.3219 6.24818C21.2438 5.07664 21.0876 4.29562 20.8533 3.6708C20.5409 2.96788 20.2284 2.34307 19.6036 1.79635C18.9788 1.17153 18.4321 0.859124 17.7292 0.546715C17.0263 0.312409 16.2453 0.0781022 15.1518 0.0781022C13.9803 0 13.5898 0 10.7 0Z" fill="black"/>
<path d="M10.6999 5.23303C7.65394 5.23303 5.15466 7.7323 5.15466 10.7783C5.15466 13.8243 7.65394 16.3235 10.6999 16.3235C13.7459 16.3235 16.2452 13.8243 16.2452 10.7783C16.2452 7.7323 13.7459 5.23303 10.6999 5.23303ZM10.6999 14.2929C8.74737 14.2929 7.10722 12.7308 7.10722 10.7002C7.10722 8.74763 8.66927 7.10749 10.6999 7.10749C12.6525 7.10749 14.2926 8.66953 14.2926 10.7002C14.2926 12.7308 12.6525 14.2929 10.6999 14.2929Z" fill="black"/>
<path d="M16.4014 6.24799C17.0915 6.24799 17.651 5.68851 17.651 4.99835C17.651 4.3082 17.0915 3.74872 16.4014 3.74872C15.7112 3.74872 15.1517 4.3082 15.1517 4.99835C15.1517 5.68851 15.7112 6.24799 16.4014 6.24799Z" fill="black"/>
</svg>
