<svg width="26" height="26" viewBox="0 0 26 26" fill="none" xmlns="http://www.w3.org/2000/svg">
<path d="M13 2.37226C16.5109 2.37226 16.8905 2.37226 18.219 2.46715C19.4525 2.56204 20.2117 2.75183 20.6861 2.94161C21.2555 3.13139 21.7299 3.41606 22.2044 3.89051C22.6788 4.36496 22.9635 4.74453 23.1533 5.40876C23.3431 5.88321 23.5328 6.54745 23.6277 7.87591C23.7226 9.20438 23.7226 9.67883 23.7226 13.0949C23.7226 16.511 23.7226 16.9854 23.6277 18.3139C23.5328 19.5474 23.3431 20.3066 23.1533 20.781C22.9635 21.3504 22.6788 21.8248 22.2044 22.2993C21.7299 22.7737 21.3504 23.0584 20.6861 23.2482C20.2117 23.438 19.5474 23.6277 18.219 23.7226C16.8905 23.8175 16.416 23.8175 13 23.8175C9.58393 23.8175 9.10947 23.8175 7.78101 23.7226C6.54743 23.6277 5.7883 23.438 5.31385 23.2482C4.7445 23.0584 4.27007 22.7737 3.79562 22.2993C3.32117 21.8248 3.0365 21.4453 2.84672 20.781C2.65693 20.3066 2.46715 19.6423 2.37226 18.3139C2.27737 16.9854 2.27737 16.511 2.27737 13.0949C2.27737 9.67883 2.27737 9.20438 2.37226 7.87591C2.46715 6.64234 2.65693 5.88321 2.84672 5.40876C3.0365 4.83942 3.32117 4.36496 3.79562 3.89051C4.27007 3.41606 4.64961 3.13139 5.31385 2.94161C5.7883 2.75183 6.45254 2.56204 7.78101 2.46715C9.10947 2.37226 9.48904 2.37226 13 2.37226ZM13 0C9.48904 0 9.0146 0 7.59124 0.0948905C6.16788 0.189781 5.21896 0.379562 4.45984 0.664234C3.60582 1.0438 2.8467 1.42336 2.18247 2.18248C1.42335 2.94161 1.04378 3.60584 0.664216 4.45986C0.379545 5.31387 0.0948674 6.26278 0.0948674 7.59124C-2.3168e-05 9.0146 0 9.39416 0 13C0 16.511 -2.3168e-05 16.9854 0.0948674 18.4088C0.189758 19.8321 0.379545 20.781 0.664216 21.5402C1.04378 22.3942 1.42335 23.1533 2.18247 23.8175C2.9416 24.5766 3.60582 24.9562 4.45984 25.3358C5.31385 25.6204 6.26278 25.9051 7.59124 25.9051C9.0146 26 9.39415 26 13 26C16.5109 26 16.9854 26 18.4088 25.9051C19.8321 25.8102 20.781 25.6204 21.5401 25.3358C22.3941 24.9562 23.1533 24.5766 23.8175 23.8175C24.5766 23.0584 24.9562 22.3942 25.3358 21.5402C25.6204 20.6861 25.9051 19.7372 25.9051 18.4088C26 16.9854 26 16.6058 26 13C26 9.39416 26 9.0146 25.9051 7.59124C25.8102 6.16788 25.6204 5.21898 25.3358 4.45986C24.9562 3.60584 24.5766 2.84672 23.8175 2.18248C23.0584 1.42336 22.3941 1.0438 21.5401 0.664234C20.6861 0.379562 19.7372 0.0948905 18.4088 0.0948905C16.9854 0 16.5109 0 13 0Z" fill="black"/>
<path d="M12.9999 6.35788C9.2992 6.35788 6.2627 9.39438 6.2627 13.0951C6.2627 16.7958 9.2992 19.8323 12.9999 19.8323C16.7007 19.8323 19.7372 16.7958 19.7372 13.0951C19.7372 9.39438 16.7007 6.35788 12.9999 6.35788ZM12.9999 17.3652C10.6277 17.3652 8.63496 15.4674 8.63496 13.0002C8.63496 10.628 10.5328 8.63525 12.9999 8.63525C15.3722 8.63525 17.3649 10.5331 17.3649 13.0002C17.3649 15.4674 15.3722 17.3652 12.9999 17.3652Z" fill="black"/>
<path d="M19.9269 7.59103C20.7655 7.59103 21.4452 6.91129 21.4452 6.07278C21.4452 5.23428 20.7655 4.55453 19.9269 4.55453C19.0884 4.55453 18.4087 5.23428 18.4087 6.07278C18.4087 6.91129 19.0884 7.59103 19.9269 7.59103Z" fill="black"/>
</svg>
