<svg width="20" height="20" viewBox="0 0 20 20" fill="none" xmlns="http://www.w3.org/2000/svg">
<path d="M2.44193 4.9211C1.09356 4.9211 0 3.81959 0 2.46055C0 1.10152 1.0945 0 2.44193 0C3.7903 0 4.88386 1.10152 4.88386 2.46055C4.88386 3.81959 3.7903 4.9211 2.44193 4.9211Z" fill="black"/>
<path d="M20 19.9999H15.8909V13.0017C15.8909 11.0816 15.1613 10.0101 13.6427 10.0101C11.9897 10.0101 11.1265 11.1267 11.1265 13.0017V19.9999H7.16694V6.66609H11.1265V8.46216C11.1265 8.46216 12.3178 6.26007 15.1462 6.26007C17.9756 6.26007 20 7.98565 20 11.5581V19.9999Z" fill="black"/>
<path d="M4.52641 20H0.397602V6.66621H4.52641V20Z" fill="black"/>
</svg>
