<svg width="146" height="102" viewBox="0 0 146 102" fill="none" xmlns="http://www.w3.org/2000/svg">
<path d="M64.3395 0L59.6549 27H44.7864L40 54H87.6605L92.1414 28.5226L74.5233 27H107.315L112 0H64.3395Z" fill="#BB1E10"/>
<path d="M84.2998 46.4887H81.1428L80.6337 49.6354H78.2914L78.8006 46.4887H75.6436L76.0509 44.1542H79.2079L79.7171 41.0075H82.0594L81.5502 44.1542H84.7072L84.2998 46.4887Z" fill="white"/>
<path d="M14.8937 88.981C14.8937 92.8798 11.4674 94.7595 7.62165 94.7595C3.98563 94.7595 1.32854 93.2279 0 90.443L4.05556 88.1456C4.54502 89.6076 5.80364 90.5127 7.62165 90.5127C9.09004 90.5127 10.1389 90.0253 10.1389 88.981C10.1389 86.3355 0.769161 87.7975 0.769161 81.462C0.769161 77.7722 3.91571 75.7532 7.69157 75.7532C10.6284 75.7532 13.1456 77.076 14.614 79.5823L10.6284 81.7405C10.069 80.557 9.09004 79.9304 7.7615 79.9304C6.5728 79.9304 5.6638 80.4177 5.6638 81.3924C5.52395 84.038 14.8937 82.3671 14.8937 88.981Z" fill="black"/>
<path d="M42.5834 76.2405L36.7798 94.2722H32.3047L28.9483 83.3418L25.6619 94.2722H21.1868L15.4531 76.2405H20.4177L23.4943 87.3101L26.7807 76.2405H31.1859L34.4723 87.3797L37.5489 76.2405H42.5834Z" fill="black"/>
<path d="M44.2612 76.2405H48.9461V94.2722H44.2612V76.2405Z" fill="black"/>
<path d="M66.1476 88.981C66.1476 92.8798 62.7213 94.7595 58.8756 94.7595C55.2395 94.7595 52.5825 93.2279 51.2539 90.443L55.3095 88.1456C55.7989 89.6076 57.0575 90.5127 58.8756 90.5127C60.3439 90.5127 61.3928 90.0253 61.3928 88.981C61.3928 86.3355 52.0231 87.7975 52.0231 81.462C52.0231 77.7722 55.1696 75.7532 58.9455 75.7532C61.8823 75.7532 64.3995 77.076 65.8679 79.5823L61.8823 81.7405C61.3229 80.557 60.3439 79.9304 59.0154 79.9304C57.8267 79.9304 56.9177 80.4177 56.9177 81.3924C56.7779 84.038 66.1476 82.3671 66.1476 88.981Z" fill="black"/>
<path d="M82.3695 88.981C82.3695 92.8798 78.9433 94.7595 75.0975 94.7595C71.4615 94.7595 68.8044 93.2279 67.4758 90.443L71.5314 88.1456C72.0209 89.6076 73.2795 90.5127 75.0975 90.5127C76.5659 90.5127 77.6147 90.0253 77.6147 88.981C77.6147 86.3355 68.245 87.7975 68.245 81.462C68.245 77.7722 71.3915 75.7532 75.1674 75.7532C78.1042 75.7532 80.6214 77.076 82.0898 79.5823L78.1042 81.7405C77.5448 80.557 76.5659 79.9304 75.2373 79.9304C74.0486 79.9304 73.1396 80.4177 73.1396 81.3924C72.9998 84.038 82.3695 82.3671 82.3695 88.981Z" fill="black"/>
<path d="M103.207 69V94.2722H98.5221V92.1139C97.1936 93.7848 95.3057 94.7595 92.6486 94.7595C87.7539 94.7595 83.7683 90.5823 83.7683 85.2215C83.7683 79.8608 87.7539 75.6835 92.6486 75.6835C95.3057 75.6835 97.1936 76.6582 98.5221 78.3291V69H103.207ZM98.5221 85.2215C98.5221 82.1582 96.3545 80.1392 93.4877 80.1392C90.5509 80.1392 88.4532 82.2278 88.4532 85.2215C88.4532 88.2152 90.6208 90.3038 93.4877 90.3038C96.3545 90.3038 98.5221 88.2848 98.5221 85.2215Z" fill="black"/>
<path d="M105.794 85.2215C105.794 79.8607 110.06 75.6835 115.374 75.6835C120.688 75.6835 124.953 79.8607 124.953 85.2215C124.953 90.5823 120.688 94.7595 115.374 94.7595C110.06 94.7595 105.794 90.6519 105.794 85.2215ZM120.338 85.2215C120.338 82.2975 118.171 80.2088 115.374 80.2088C112.647 80.2088 110.479 82.2975 110.479 85.2215C110.479 88.1456 112.647 90.2342 115.374 90.2342C118.171 90.2342 120.338 88.1456 120.338 85.2215Z" fill="black"/>
<path d="M146 76.2405V93.4367C146 99.3544 141.315 102 136.56 102C132.645 102 129.568 100.538 127.96 97.6139L131.945 95.3164C132.714 96.7089 133.903 97.8228 136.7 97.8228C139.637 97.8228 141.455 96.2215 141.455 93.3671V91.4873C140.196 93.1582 138.238 94.2025 135.651 94.2025C130.477 94.2025 126.631 90.0253 126.631 84.943C126.631 79.8607 130.547 75.6835 135.651 75.6835C138.238 75.6835 140.196 76.7278 141.455 78.3987V76.1709H146V76.2405ZM141.455 84.943C141.455 82.0886 139.287 80 136.35 80C133.414 80 131.246 82.0886 131.246 84.943C131.246 87.8671 133.414 89.8861 136.35 89.8861C139.287 89.8861 141.455 87.8671 141.455 84.943Z" fill="black"/>
<path d="M48.9998 69H44.3098V73.69H48.9998V69Z" fill="black"/>
</svg>
