<svg width="300" height="63" viewBox="0 0 300 63" fill="none" xmlns="http://www.w3.org/2000/svg">
<path d="M23.9 9.79999L19.3 36.4H4.7L0 63H46.8L51.2 37.9L33.9 36.4H66.1L70.7 9.79999H23.9Z" fill="#BB1E10"/>
<path d="M43.5 55.6H40.4L39.9 58.7H37.6L38.1 55.6H35L35.4 53.3H38.5L39 50.2H41.3L40.8 53.3H43.9L43.5 55.6Z" fill="white"/>
<path d="M112.5 28.7C112.5 34.3 107.6 37 102.1 37C96.9 37 93.1 34.8 91.2 30.8L97 27.5C97.7 29.6 99.5 30.9 102.1 30.9C104.2 30.9 105.7 30.2 105.7 28.7C105.7 24.9 92.3 27 92.3 17.9C92.3 12.6 96.8 9.70001 102.2 9.70001C106.4 9.70001 110 11.6 112.1 15.2L106.4 18.3C105.6 16.6 104.2 15.7 102.3 15.7C100.6 15.7 99.3 16.4 99.3 17.8C99.1 21.6 112.5 19.2 112.5 28.7Z" fill="black"/>
<path d="M152.1 10.4L143.8 36.3H137.4L132.6 20.6L127.9 36.3H121.5L113.3 10.4H120.4L124.8 26.3L129.5 10.4H135.8L140.5 26.4L144.9 10.4H152.1Z" fill="black"/>
<path d="M154.5 10.4H161.2V36.3H154.5V10.4Z" fill="black"/>
<path d="M185.8 28.7C185.8 34.3 180.9 37 175.4 37C170.2 37 166.4 34.8 164.5 30.8L170.3 27.5C171 29.6 172.8 30.9 175.4 30.9C177.5 30.9 179 30.2 179 28.7C179 24.9 165.6 27 165.6 17.9C165.6 12.6 170.1 9.70001 175.5 9.70001C179.7 9.70001 183.3 11.6 185.4 15.2L179.7 18.3C178.9 16.6 177.5 15.7 175.6 15.7C173.9 15.7 172.6 16.4 172.6 17.8C172.4 21.6 185.8 19.2 185.8 28.7Z" fill="black"/>
<path d="M209 28.7C209 34.3 204.1 37 198.6 37C193.4 37 189.6 34.8 187.7 30.8L193.5 27.5C194.2 29.6 196 30.9 198.6 30.9C200.7 30.9 202.2 30.2 202.2 28.7C202.2 24.9 188.8 27 188.8 17.9C188.8 12.6 193.3 9.70001 198.7 9.70001C202.9 9.70001 206.5 11.6 208.6 15.2L202.9 18.3C202.1 16.6 200.7 15.7 198.8 15.7C197.1 15.7 195.8 16.4 195.8 17.8C195.6 21.6 209 19.2 209 28.7Z" fill="black"/>
<path d="M238.8 0V36.3H232.1V33.2C230.2 35.6 227.5 37 223.7 37C216.7 37 211 31 211 23.3C211 15.6 216.7 9.6 223.7 9.6C227.5 9.6 230.2 11 232.1 13.4V0H238.8ZM232.1 23.3C232.1 18.9 229 16 224.9 16C220.7 16 217.7 19 217.7 23.3C217.7 27.6 220.8 30.6 224.9 30.6C229 30.6 232.1 27.7 232.1 23.3Z" fill="black"/>
<path d="M242.5 23.3C242.5 15.6 248.6 9.60001 256.2 9.60001C263.8 9.60001 269.9 15.6 269.9 23.3C269.9 31 263.8 37 256.2 37C248.6 37 242.5 31.1 242.5 23.3ZM263.3 23.3C263.3 19.1 260.2 16.1 256.2 16.1C252.3 16.1 249.2 19.1 249.2 23.3C249.2 27.5 252.3 30.5 256.2 30.5C260.2 30.5 263.3 27.5 263.3 23.3Z" fill="black"/>
<path d="M300 10.4V35.1C300 43.6 293.3 47.4 286.5 47.4C280.9 47.4 276.5 45.3 274.2 41.1L279.9 37.8C281 39.8 282.7 41.4 286.7 41.4C290.9 41.4 293.5 39.1 293.5 35V32.3C291.7 34.7 288.9 36.2 285.2 36.2C277.8 36.2 272.3 30.2 272.3 22.9C272.3 15.6 277.9 9.60001 285.2 9.60001C288.9 9.60001 291.7 11.1 293.5 13.5V10.3H300V10.4ZM293.5 22.9C293.5 18.8 290.4 15.8 286.2 15.8C282 15.8 278.9 18.8 278.9 22.9C278.9 27.1 282 30 286.2 30C290.4 30 293.5 27.1 293.5 22.9Z" fill="black"/>
<path d="M161.2 0H154.5V6.7H161.2V0Z" fill="black"/>
</svg>
