<svg width="22" height="17" viewBox="0 0 22 17" fill="none" xmlns="http://www.w3.org/2000/svg">
<path fill-rule="evenodd" clip-rule="evenodd" d="M19.4289 4.19641C19.4382 4.37903 19.4424 4.56166 19.4424 4.74672C19.4424 10.3645 14.9749 16.843 6.80715 16.843C4.29952 16.843 1.96576 16.1383 0 14.9319C0.347743 14.9723 0.701394 14.9925 1.06011 14.9925C3.13982 14.9925 5.05493 14.3129 6.57504 13.1719C4.63207 13.1371 2.99211 11.908 2.4266 10.2199C2.69838 10.2692 2.97607 10.2942 3.26304 10.2942C3.66818 10.2942 4.05981 10.2433 4.43288 10.1456C2.40128 9.75444 0.871046 8.03645 0.871046 5.97663V5.92329C1.48719 6.25138 2.17761 6.43401 2.88238 6.45421C1.6906 5.69218 0.907339 4.39116 0.907339 2.91639C0.907339 2.1374 1.12594 1.40688 1.50829 0.778998C3.69857 3.35034 6.9709 5.04328 10.661 5.22106C10.5859 4.90914 10.5471 4.58429 10.5471 4.25136C10.5471 1.90305 12.5356 0 14.9867 0C16.2646 0 17.4192 0.515561 18.2287 1.34224C19.2238 1.15476 20.1775 0.805665 21.0494 0.310306C20.7169 1.30264 20.0138 2.13659 19.0963 2.66265C19.9961 2.56003 20.8511 2.33053 21.647 1.99275C21.0503 2.84771 20.2982 3.59357 19.4289 4.19641Z" fill="black"/>
</svg>
