<svg width="26" height="19" viewBox="0 0 26 19" fill="none" xmlns="http://www.w3.org/2000/svg">
<path d="M25.4587 2.85637C25.31 2.30238 25.0193 1.79731 24.6156 1.39156C24.212 0.985813 23.7095 0.693592 23.1584 0.544071C21.1327 2.3845e-07 13 0 13 0C13 0 4.87326 2.3845e-07 2.84157 0.544071C2.29073 0.693714 1.78859 0.98601 1.38528 1.39176C0.981979 1.79752 0.691632 2.30253 0.543241 2.85637C-8.53971e-07 4.89264 0 9.14719 0 9.14719C0 9.14719 -8.53971e-07 13.3997 0.543241 15.438C0.691386 15.9918 0.981684 16.4966 1.38505 16.9021C1.78842 17.3076 2.2907 17.5994 2.84157 17.7483C4.87326 18.2944 13 18.2944 13 18.2944C13 18.2944 21.1327 18.2944 23.1584 17.7483C23.7096 17.5995 24.2122 17.3078 24.6159 16.9023C25.0196 16.4969 25.3102 15.9919 25.4587 15.438C26 13.3997 26 9.14719 26 9.14719C26 9.14719 26.008 4.89264 25.4587 2.85637Z" fill="black"/>
<path d="M10.4111 13.0677L17.1648 9.14716L10.4111 5.22665V13.0677Z" fill="white"/>
</svg>
